# 3ds Max Wavefront OBJ Exporter v0.97b - (c)2007 guruware
# File Created: 26.09.2018 14:44:07

mtllib Potato.mtl

#
# object Sphere001
#

v  0.1199 0.1929 -0.0000
v  0.1845 0.1098 -0.0918
v  0.0657 0.1281 -0.1400
v  -0.0130 0.1422 -0.0928
v  -0.0508 0.1042 -0.0268
v  -0.0441 0.1042 0.0392
v  0.0107 0.1098 0.1098
v  0.0918 0.1561 0.1134
v  0.1585 0.1561 0.0918
v  0.1997 0.1561 0.0350
v  0.1997 0.1561 -0.0350
v  -0.1079 0.0596 -0.1485
v  0.0918 0.0596 -0.1835
v  -0.1745 0.0596 -0.0567
v  -0.1745 0.0596 0.0567
v  -0.1079 0.0596 0.1485
v  0.0918 0.0596 0.1835
v  0.1997 0.0596 0.1485
v  0.2664 0.0596 0.0567
v  0.2664 0.0596 -0.0567
v  0.1997 0.0596 -0.1485
v  -0.0707 -0.0596 -0.1871
v  0.0918 -0.0596 -0.1835
v  -0.2085 -0.0596 -0.0412
v  -0.1786 -0.0596 0.0845
v  -0.1079 -0.0596 0.1485
v  0.0918 -0.0596 0.1835
v  0.1997 -0.0596 0.1485
v  0.2664 -0.0596 0.0567
v  0.2664 -0.0596 -0.0567
v  0.1997 -0.0596 -0.1485
v  -0.0667 -0.1561 -0.0918
v  0.0894 -0.1561 -0.1392
v  -0.1079 -0.1561 -0.0350
v  -0.1079 -0.1561 0.0350
v  -0.0492 -0.1177 0.0918
v  0.0918 -0.1561 0.1134
v  0.1705 -0.1092 0.1133
v  0.1997 -0.1561 0.0350
v  0.2142 -0.1561 -0.0629
v  0.1519 -0.1561 -0.1114
v  0.0326 -0.1774 -0.0106
# 42 vertices

vn 0.0095 0.9981 -0.0606
vn 0.1870 0.7594 -0.6231
vn 0.0538 0.7356 -0.6753
vn -0.3498 0.9049 -0.2424
vn -0.4045 0.9032 0.1434
vn -0.3717 0.9191 0.1311
vn -0.3251 0.8309 0.4516
vn -0.1516 0.8152 0.5591
vn 0.3720 0.7683 0.5210
vn 0.6202 0.7574 0.2041
vn 0.5048 0.7944 -0.3378
vn -0.5238 0.4460 -0.7258
vn 0.1371 0.3323 -0.9332
vn -0.7898 0.5745 -0.2148
vn -0.7914 0.5564 0.2530
vn -0.4869 0.4904 0.7228
vn 0.0383 0.3211 0.9463
vn 0.5621 0.2925 0.7736
vn 0.9095 0.2925 0.2955
vn 0.9095 0.2925 -0.2955
vn 0.5228 0.3657 -0.7700
vn -0.3455 -0.2909 -0.8922
vn 0.1205 -0.2479 -0.9613
vn -0.9499 -0.2362 -0.2049
vn -0.8162 -0.2731 0.5092
vn -0.4593 -0.3827 0.8016
vn 0.0744 -0.3043 0.9497
vn 0.5465 -0.3235 0.7725
vn 0.9094 -0.2800 0.3076
vn 0.9223 -0.2396 -0.3033
vn 0.5830 -0.2497 -0.7732
vn -0.3440 -0.8166 -0.4636
vn 0.0270 -0.7568 -0.6531
vn -0.4751 -0.8562 -0.2030
vn -0.3820 -0.8566 0.3468
vn -0.2459 -0.8154 0.5241
vn 0.1754 -0.8859 0.4293
vn 0.3333 -0.7380 0.5867
vn 0.4196 -0.8534 0.3094
vn 0.5874 -0.7427 -0.3215
vn 0.3327 -0.8000 -0.4992
vn -0.0291 -0.9963 0.0809
# 42 vertex normals

vt 0.9000 1.0000 0.0000
vt 0.9000 0.8000 0.0000
vt 1.0000 0.8000 0.0000
vt 1.0508 0.7990 0.0000
vt 0.2000 0.8000 0.0000
vt 0.2680 0.8361 0.0000
vt 0.1000 1.0000 0.0000
vt 0.1000 0.8000 0.0000
vt 0.4000 0.8000 0.0000
vt 0.4467 0.8863 0.0000
vt 0.3000 1.0000 0.0000
vt 0.3000 0.8000 0.0000
vt 0.6000 0.8000 0.0000
vt 0.6488 0.8730 0.0000
vt 0.5000 1.0000 0.0000
vt 0.5000 0.8000 0.0000
vt 0.8000 0.8000 0.0000
vt 0.8000 1.0000 0.0000
vt 0.7328 0.8177 0.0000
vt 0.1000 0.6000 0.0000
vt 0.0000 0.8000 0.0000
vt 0.0000 0.6000 0.0000
vt 0.2000 0.6000 0.0000
vt 0.3000 0.6000 0.0000
vt 0.4000 0.6000 0.0000
vt 0.5000 0.6000 0.0000
vt 0.6000 0.6000 0.0000
vt 0.7000 0.6000 0.0000
vt 0.7000 0.8000 0.0000
vt 0.8000 0.6000 0.0000
vt 0.9000 0.6000 0.0000
vt 1.0000 0.6000 0.0000
vt 0.1000 0.4000 0.0000
vt 0.0000 0.4000 0.0000
vt 0.2000 0.4000 0.0000
vt 0.3000 0.4000 0.0000
vt 0.4000 0.4000 0.0000
vt 0.5000 0.4000 0.0000
vt 0.6000 0.4000 0.0000
vt 0.7000 0.4000 0.0000
vt 0.8000 0.4000 0.0000
vt 0.9000 0.4000 0.0000
vt 1.0000 0.4000 0.0000
vt 0.1000 0.2000 0.0000
vt 0.0000 0.2000 0.0000
vt 0.2000 0.2000 0.0000
vt 0.3000 0.2000 0.0000
vt 0.4000 0.2000 0.0000
vt 0.5000 0.2000 0.0000
vt 0.6000 0.2000 0.0000
vt 0.7000 0.2000 0.0000
vt 0.8000 0.2000 0.0000
vt 0.9000 0.2000 0.0000
vt 1.0000 0.2000 0.0000
vt -0.0418 0.1510 0.0000
vt 0.0000 0.0000 0.0000
vt 0.2000 0.0000 0.0000
vt 0.1091 0.1601 0.0000
vt 0.4000 0.0000 0.0000
vt 0.3329 0.1187 0.0000
vt 0.5000 0.0000 0.0000
vt 0.6638 0.1316 0.0000
vt 0.8000 0.0000 0.0000
vt 0.7020 0.1316 0.0000
# 64 texture coords

g Sphere001
usemtl Material__2
s 1
f 1/1/1 2/2/2 3/3/3 4/4/4 
f 5/5/5 6/6/6 1/7/1 4/8/4 
f 7/9/7 8/10/8 1/11/1 6/12/6 
f 9/13/9 10/14/10 1/15/1 8/16/8 
f 11/17/11 2/2/2 1/18/1 10/19/10 
f 12/20/12 4/8/4 3/21/3 13/22/13 
f 14/23/14 5/5/5 4/8/4 12/20/12 
f 15/24/15 6/12/6 5/5/5 14/23/14 
f 16/25/16 7/9/7 6/12/6 15/24/15 
f 17/26/17 8/16/8 7/9/7 16/25/16 
f 18/27/18 9/13/9 8/16/8 17/26/17 
f 19/28/19 10/29/10 9/13/9 18/27/18 
f 20/30/20 11/17/11 10/29/10 19/28/19 
f 21/31/21 2/2/2 11/17/11 20/30/20 
f 13/32/13 3/3/3 2/2/2 21/31/21 
f 22/33/22 12/20/12 13/22/13 23/34/23 
f 24/35/24 14/23/14 12/20/12 22/33/22 
f 25/36/25 15/24/15 14/23/14 24/35/24 
f 26/37/26 16/25/16 15/24/15 25/36/25 
f 27/38/27 17/26/17 16/25/16 26/37/26 
f 28/39/28 18/27/18 17/26/17 27/38/27 
f 29/40/29 19/28/19 18/27/18 28/39/28 
f 30/41/30 20/30/20 19/28/19 29/40/29 
f 31/42/31 21/31/21 20/30/20 30/41/30 
f 23/43/23 13/32/13 21/31/21 31/42/31 
f 32/44/32 22/33/22 23/34/23 33/45/33 
f 34/46/34 24/35/24 22/33/22 32/44/32 
f 35/47/35 25/36/25 24/35/24 34/46/34 
f 36/48/36 26/37/26 25/36/25 35/47/35 
f 37/49/37 27/38/27 26/37/26 36/48/36 
f 38/50/38 28/39/28 27/38/27 37/49/37 
f 39/51/39 29/40/29 28/39/28 38/50/38 
f 40/52/40 30/41/30 29/40/29 39/51/39 
f 41/53/41 31/42/31 30/41/30 40/52/40 
f 33/54/33 23/43/23 31/42/31 41/53/41 
f 33/45/33 41/55/41 42/56/42 32/44/32 
f 42/57/42 35/47/35 34/46/34 32/58/32 
f 42/59/42 37/49/37 36/48/36 35/60/35 
f 42/61/42 39/62/39 38/50/38 37/49/37 
f 42/63/42 41/53/41 40/52/40 39/64/39 
# 40 polygons

